<!-- Generator: Adobe Illustrator 18.1.1, SVG Export Plug-In  -->
<svg version="1.1"
	 xmlns="http://www.w3.org/2000/svg" xmlns:xlink="http://www.w3.org/1999/xlink" xmlns:a="http://ns.adobe.com/AdobeSVGViewerExtensions/3.0/"
	 x="0px" y="0px" width="34px" height="34px" viewBox="0 0 34 34" enable-background="new 0 0 34 34" xml:space="preserve">
<defs>
</defs>
<g>
	<g>
		<rect x="0.5" y="0.5" fill="#FFFFFF" width="33" height="33"/>
		<path fill="#CBCBCB" d="M33,1v32H1V1H33 M34,0h-1H1H0v1v32v1h1h32h1v-1V1V0L34,0z"/>
	</g>
	<polygon fill="#D1D1D1" points="2,2 2,25.326 2,32 32,32 32,27.17 32,2 	"/>
	<path fill="#707172" d="M27.221,24.714c-3.524-1.487-6.579-2.741-6.579-2.741s0-1.565,0-2.662c0-1.097,1.802-2.272,1.802-6.815
		c0-4.367-2.03-6.771-5.249-6.954c0-0.004,0-0.013,0-0.017c-0.066,0-0.13,0.007-0.194,0.009c-0.067-0.002-0.13-0.009-0.196-0.009
		c0,0.004,0,0.013,0,0.017c-3.219,0.183-5.249,2.587-5.249,6.954c0,4.543,1.802,5.719,1.802,6.815c0,1.097,0,2.662,0,2.662
		s-3.055,1.254-6.579,2.741C3.251,26.204,2,28.317,2,29.493c0,1.175,0,2.428,0,2.428h14.804h0.391H32c0,0,0-1.253,0-2.428
		C32,28.317,30.744,26.204,27.221,24.714z"/>
</g>
</svg>