<!-- Generator: Adobe Illustrator 18.1.1, SVG Export Plug-In  -->
<svg version="1.1"
	 xmlns="http://www.w3.org/2000/svg" xmlns:xlink="http://www.w3.org/1999/xlink" xmlns:a="http://ns.adobe.com/AdobeSVGViewerExtensions/3.0/"
	 x="0px" y="0px" width="20.679px" height="9px" viewBox="0 0 20.679 9" enable-background="new 0 0 20.679 9" xml:space="preserve"
	>
<defs>
</defs>
<path fill="#707172" d="M3.281,1.484h0.984V0H3.008v0.006c-1.652,0.06-1.991,0.987-2.021,1.964H0.984V3H0v1.485h0.984V9H2.75V4.484
	h1.266L4.265,3H2.75V2.078C2.75,1.75,2.968,1.484,3.281,1.484z"/>
<g>
	<g>
		<path fill="#707172" d="M15.963,3.551c0.331-1.327,1.033-2.264,1.807-2.264c0.775,0,0.534,0.294,0,0.415
			c1.291,0.155,2.014,1.607,2.014,2.384c0,0.778-1.308,3.629-4.595,3.629c-2.788,0-3.51-1.573-3.51-1.573s1.652,1.072,3.2-0.362
			c-0.998-0.19-0.757-0.76-0.412-0.778c-1.222-0.277-1.239-0.933-0.534-0.985c-1.05-0.484-1.222-0.933-0.431-0.951
			C11.747,1.597,13.433,1.684,15.963,3.551z"/>
		<path fill="#707172" d="M19.594,4.586c0.482-0.068,0.706-0.207,0.929-0.414c-0.43,0-0.74-0.087-0.74-0.087s0.636-0.086,0.895-0.5
			c-0.225,0.051-0.655,0.069-1.119,0L19.594,4.586z"/>
	</g>
</g>
</svg>