<!-- Generator: Adobe Illustrator 18.1.1, SVG Export Plug-In  -->
<svg version="1.1"
	 xmlns="http://www.w3.org/2000/svg" xmlns:xlink="http://www.w3.org/1999/xlink" xmlns:a="http://ns.adobe.com/AdobeSVGViewerExtensions/3.0/"
	 x="0px" y="0px" width="209.594px" height="32.598px" viewBox="0 0 209.594 32.598" enable-background="new 0 0 209.594 32.598"
	 xml:space="preserve">
<defs>
</defs>
<g>
	<linearGradient id="SVGID_1_" gradientUnits="userSpaceOnUse" x1="104.7972" y1="10.1107" x2="104.7972" y2="33.1081">
		<stop  offset="0" style="stop-color:#F5F5F5"/>
		<stop  offset="1" style="stop-color:#F1F1F1"/>
	</linearGradient>
	<path fill="url(#SVGID_1_)" d="M1.319,32.268c-0.545,0-0.988-0.443-0.988-0.989V10.833c0-0.546,0.443-0.989,0.988-0.989h206.956
		c0.546,0,0.989,0.443,0.989,0.989v20.446c0,0.546-0.443,0.989-0.989,0.989H1.319z"/>
	<path fill="#D9D9D9" d="M208.275,10.173c0.364,0,0.66,0.296,0.66,0.66v20.447c0,0.364-0.296,0.66-0.66,0.66H1.319
		c-0.364,0-0.66-0.296-0.66-0.66V10.832c0-0.364,0.296-0.66,0.66-0.66H208.275 M208.275,9.513H1.319C0.591,9.513,0,10.104,0,10.832
		v20.447c0,0.728,0.591,1.319,1.319,1.319h206.956c0.728,0,1.319-0.591,1.319-1.319V10.832
		C209.594,10.104,209.003,9.513,208.275,9.513L208.275,9.513z"/>
</g>
<g>
	<line fill="none" stroke="#D9D9D9" stroke-width="0.6596" stroke-miterlimit="10" x1="20.892" y1="0" x2="20.892" y2="23.598"/>
	
		<line fill="none" stroke="#FFFFFF" stroke-width="0.6596" stroke-miterlimit="10" x1="21.562" y1="0.662" x2="21.562" y2="22.931"/>
</g>
<g>
	<line fill="none" stroke="#D9D9D9" stroke-width="0.6596" stroke-miterlimit="10" x1="191.366" y1="9" x2="191.366" y2="32.598"/>
	
		<line fill="none" stroke="#FFFFFF" stroke-width="0.6596" stroke-miterlimit="10" x1="192.036" y1="9.662" x2="192.036" y2="31.931"/>
</g>
<g>
	<path fill="#464749" d="M38.658,23.132c0-0.614,0.063-1.108,0.189-1.482c0.127-0.374,0.314-0.663,0.563-0.866
		s0.562-0.305,0.94-0.305c0.279,0,0.523,0.057,0.733,0.168c0.21,0.112,0.384,0.274,0.521,0.485c0.137,0.212,0.244,0.47,0.322,0.772
		c0.077,0.304,0.116,0.713,0.116,1.228c0,0.609-0.062,1.102-0.188,1.476s-0.312,0.664-0.562,0.868s-0.563,0.307-0.944,0.307
		c-0.5,0-0.894-0.18-1.18-0.539C38.829,24.811,38.658,24.107,38.658,23.132z M39.313,23.132c0,0.853,0.101,1.42,0.3,1.702
		s0.445,0.424,0.738,0.424s0.539-0.142,0.739-0.426c0.199-0.283,0.299-0.85,0.299-1.7c0-0.854-0.1-1.423-0.299-1.704
		c-0.2-0.28-0.448-0.421-0.746-0.421c-0.293,0-0.526,0.124-0.701,0.372C39.423,21.695,39.313,22.279,39.313,23.132z"/>
	<path fill="#464749" d="M42.866,22.657v-0.727h0.727v0.727H42.866z M42.866,25.693v-0.727h0.727v0.727H42.866z"/>
	<path fill="#464749" d="M44.345,23.132c0-0.614,0.063-1.108,0.189-1.482c0.127-0.374,0.314-0.663,0.563-0.866
		s0.562-0.305,0.94-0.305c0.279,0,0.523,0.057,0.733,0.168c0.21,0.112,0.384,0.274,0.521,0.485c0.137,0.212,0.244,0.47,0.322,0.772
		c0.077,0.304,0.116,0.713,0.116,1.228c0,0.609-0.062,1.102-0.188,1.476s-0.312,0.664-0.562,0.868s-0.563,0.307-0.944,0.307
		c-0.5,0-0.894-0.18-1.18-0.539C44.517,24.811,44.345,24.107,44.345,23.132z M45,23.132c0,0.853,0.101,1.42,0.3,1.702
		s0.445,0.424,0.738,0.424s0.539-0.142,0.739-0.426c0.199-0.283,0.299-0.85,0.299-1.7c0-0.854-0.1-1.423-0.299-1.704
		c-0.2-0.28-0.448-0.421-0.746-0.421c-0.293,0-0.526,0.124-0.701,0.372C45.111,21.695,45,22.279,45,23.132z"/>
	<path fill="#464749" d="M50.244,25.693V24.45h-2.253v-0.585l2.37-3.365h0.521v3.365h0.702v0.585h-0.702v1.243H50.244z
		 M50.244,23.865v-2.342l-1.626,2.342H50.244z"/>
	<path fill="#707172" d="M53.586,25.782l1.506-5.371h0.51L54.1,25.782H53.586z"/>
	<path fill="#707172" d="M57.556,23.132c0-0.614,0.063-1.108,0.189-1.482c0.127-0.374,0.314-0.663,0.563-0.866
		s0.562-0.305,0.94-0.305c0.279,0,0.523,0.057,0.733,0.168c0.21,0.112,0.384,0.274,0.521,0.485c0.137,0.212,0.244,0.47,0.322,0.772
		c0.077,0.304,0.116,0.713,0.116,1.228c0,0.609-0.062,1.102-0.188,1.476s-0.312,0.664-0.562,0.868s-0.563,0.307-0.944,0.307
		c-0.5,0-0.894-0.18-1.18-0.539C57.728,24.811,57.556,24.107,57.556,23.132z M58.211,23.132c0,0.853,0.101,1.42,0.3,1.702
		s0.445,0.424,0.738,0.424s0.539-0.142,0.739-0.426c0.199-0.283,0.299-0.85,0.299-1.7c0-0.854-0.1-1.423-0.299-1.704
		c-0.2-0.28-0.448-0.421-0.746-0.421c-0.293,0-0.526,0.124-0.701,0.372C58.322,21.695,58.211,22.279,58.211,23.132z"/>
	<path fill="#707172" d="M61.764,22.657v-0.727h0.727v0.727H61.764z M61.764,25.693v-0.727h0.727v0.727H61.764z"/>
	<path fill="#707172" d="M65.287,25.693V24.45h-2.253v-0.585l2.37-3.365h0.521v3.365h0.702v0.585h-0.702v1.243H65.287z
		 M65.287,23.865v-2.342l-1.626,2.342H65.287z"/>
	<path fill="#707172" d="M67.097,24.333l0.67-0.057c0.05,0.326,0.165,0.571,0.346,0.735s0.398,0.246,0.653,0.246
		c0.307,0,0.566-0.116,0.779-0.348s0.319-0.538,0.319-0.921c0-0.363-0.103-0.65-0.307-0.86c-0.204-0.211-0.472-0.315-0.803-0.315
		c-0.205,0-0.391,0.047-0.556,0.14c-0.166,0.094-0.296,0.215-0.391,0.363l-0.599-0.078l0.504-2.668h2.582v0.609h-2.072l-0.28,1.396
		c0.312-0.218,0.64-0.326,0.981-0.326c0.454,0,0.836,0.157,1.148,0.471c0.312,0.314,0.467,0.719,0.467,1.212
		c0,0.47-0.137,0.876-0.41,1.219c-0.333,0.42-0.788,0.631-1.364,0.631c-0.473,0-0.858-0.133-1.156-0.397
		C67.311,25.121,67.14,24.769,67.097,24.333z"/>
</g>
<polygon fill="#707172" points="7.883,17.217 14.739,21.174 7.883,25.132 "/>
<g>
	<g>
		<linearGradient id="SVGID_2_" gradientUnits="userSpaceOnUse" x1="130.1991" y1="20.4127" x2="130.1991" y2="25.8844">
			<stop  offset="0.0121" style="stop-color:#E0E0E0"/>
			<stop  offset="1" style="stop-color:#F1F1F1"/>
		</linearGradient>
		<path fill="url(#SVGID_2_)" d="M77.272,25.817c-0.909,0-1.649-0.74-1.649-1.649V21.53c0-0.909,0.74-1.649,1.649-1.649h105.854
			c0.909,0,1.649,0.74,1.649,1.649v2.638c0,0.909-0.74,1.649-1.649,1.649H77.272z"/>
		<path fill="#DDDDDD" d="M183.126,20.211c0.728,0,1.319,0.591,1.319,1.319v2.638c0,0.728-0.591,1.319-1.319,1.319H77.272
			c-0.728,0-1.319-0.591-1.319-1.319V21.53c0-0.728,0.591-1.319,1.319-1.319H183.126 M183.126,19.551H77.272
			c-1.091,0-1.979,0.888-1.979,1.979v2.638c0,1.091,0.888,1.979,1.979,1.979h105.855c1.091,0,1.979-0.888,1.979-1.979V21.53
			C185.105,20.439,184.218,19.551,183.126,19.551L183.126,19.551z"/>
	</g>
	<path fill="#D1D1D1" d="M133.826,21.53c0-0.728-0.591-1.319-1.319-1.319H77.272c-0.728,0-1.319,0.591-1.319,1.319v2.638
		c0,0.728,0.591,1.319,1.319,1.319h55.235c0.729,0,1.319-0.591,1.319-1.319V21.53z"/>
	<linearGradient id="SVGID_3_" gradientUnits="userSpaceOnUse" x1="88.1105" y1="20.6835" x2="88.1105" y2="25.5469">
		<stop  offset="0.0121" style="stop-color:#FFFFFF"/>
		<stop  offset="1" style="stop-color:#F1F1F1"/>
	</linearGradient>
	<path fill="url(#SVGID_3_)" stroke="#DDDDDD" stroke-width="0.6596" stroke-miterlimit="10" d="M100.268,21.53
		c0-0.728-0.591-1.319-1.319-1.319H77.272c-0.728,0-1.319,0.591-1.319,1.319v2.638c0,0.728,0.591,1.319,1.319,1.319h21.677
		c0.728,0,1.319-0.591,1.319-1.319V21.53z"/>
	<g>
		<g>
			<g opacity="0.1">
				<circle cx="98.949" cy="23.509" r="5.277"/>
				<circle fill="none" stroke="#000000" stroke-width="0.6596" stroke-miterlimit="10" cx="98.949" cy="23.509" r="5.277"/>
			</g>
			<g>
				<linearGradient id="SVGID_4_" gradientUnits="userSpaceOnUse" x1="98.9492" y1="17.9873" x2="98.9492" y2="28.2437">
					<stop  offset="0" style="stop-color:#F5F5F5"/>
					<stop  offset="1" style="stop-color:#F1F1F1"/>
				</linearGradient>
				<circle fill="url(#SVGID_4_)" cx="98.949" cy="22.849" r="5.277"/>
				<circle fill="none" stroke="#C4C4C4" stroke-width="0.6596" stroke-miterlimit="10" cx="98.949" cy="22.849" r="5.277"/>
			</g>
		</g>
		<g>
			<g>
				<circle fill="#FFFFFF" cx="98.95" cy="23.509" r="2.308"/>
				<path fill="#FFFFFF" d="M98.949,21.53c1.091,0,1.979,0.888,1.979,1.979s-0.888,1.979-1.979,1.979S96.97,24.6,96.97,23.509
					S97.858,21.53,98.949,21.53 M98.949,20.87c-1.457,0-2.638,1.181-2.638,2.638c0,1.457,1.181,2.638,2.638,2.638
					s2.638-1.181,2.638-2.638C101.588,22.052,100.406,20.87,98.949,20.87L98.949,20.87z"/>
			</g>
			<g>
				<linearGradient id="SVGID_5_" gradientUnits="userSpaceOnUse" x1="98.9491" y1="21.5315" x2="98.9491" y2="25.9501">
					<stop  offset="0" style="stop-color:#EAEAEA"/>
					<stop  offset="1" style="stop-color:#F1F1F1"/>
				</linearGradient>
				<circle fill="url(#SVGID_5_)" cx="98.95" cy="22.849" r="2.308"/>
				<path fill="#D9D9D9" d="M98.949,20.87c1.091,0,1.979,0.888,1.979,1.979s-0.888,1.979-1.979,1.979s-1.979-0.888-1.979-1.979
					S97.858,20.87,98.949,20.87 M98.949,20.211c-1.457,0-2.638,1.181-2.638,2.638c0,1.457,1.181,2.638,2.638,2.638
					s2.638-1.181,2.638-2.638C101.588,21.392,100.406,20.211,98.949,20.211L98.949,20.211z"/>
			</g>
		</g>
	</g>
</g>
<g>
	<path fill="#707172" d="M205.464,26.806c0,0.365-0.295,0.66-0.66,0.66h-7.915c-0.364,0-0.66-0.295-0.66-0.66v-7.915
		c0-0.365,0.296-0.66,0.66-0.66h7.915c0.365,0,0.66,0.295,0.66,0.66V26.806z"/>
	<g>
		<g>
			<polygon fill="#FFFFFF" points="198.374,22.153 197.714,22.153 197.714,19.762 200.105,19.762 200.105,20.422 198.374,20.422 			
				"/>
			
				<rect x="197.617" y="20.793" transform="matrix(0.7071 0.7071 -0.7071 0.7071 73.2437 -134.5803)" fill="#FFFFFF" width="2.915" height="0.659"/>
		</g>
		<g>
			<polygon fill="#FFFFFF" points="203.98,22.153 203.321,22.153 203.321,20.422 201.589,20.422 201.589,19.762 203.98,19.762 			
				"/>
			
				<rect x="202.29" y="19.665" transform="matrix(0.7071 0.7071 -0.7071 0.7071 74.282 -137.0871)" fill="#FFFFFF" width="0.659" height="2.915"/>
		</g>
		<g>
			<polygon fill="#FFFFFF" points="200.105,25.935 197.714,25.935 197.714,23.545 198.374,23.545 198.374,25.276 200.105,25.276 			
				"/>
			
				<rect x="198.745" y="23.118" transform="matrix(0.7071 0.7072 -0.7072 0.7071 75.6961 -133.5778)" fill="#FFFFFF" width="0.66" height="2.915"/>
		</g>
		<g>
			<polygon fill="#FFFFFF" points="203.98,25.935 201.589,25.935 201.589,25.276 203.321,25.276 203.321,23.545 203.98,23.545 			
				"/>
			
				<rect x="201.162" y="24.245" transform="matrix(0.7071 0.7071 -0.7071 0.7071 76.7232 -136.0759)" fill="#FFFFFF" width="2.915" height="0.66"/>
		</g>
	</g>
</g>
</svg>