<!-- Generator: Adobe Illustrator 18.1.1, SVG Export Plug-In  -->
<svg version="1.1"
	 xmlns="http://www.w3.org/2000/svg" xmlns:xlink="http://www.w3.org/1999/xlink" xmlns:a="http://ns.adobe.com/AdobeSVGViewerExtensions/3.0/"
	 x="0px" y="0px" width="35.602px" height="35.193px" viewBox="0 0 35.602 35.193" enable-background="new 0 0 35.602 35.193"
	 xml:space="preserve">
<defs>
</defs>
<g>
	<g>
		<rect x="0.748" y="0.339" fill="#FFFFFF" width="34.516" height="34.516"/>
		<path fill="#CBCBCB" d="M34.926,0.677v33.839H1.087V0.677H34.926 M35.602,0h-0.677H1.087H0.41v0.677v33.839v0.677h0.677h33.839
			h0.677v-0.677V0.677V0L35.602,0z"/>
	</g>
	<g>
		<linearGradient id="SVGID_1_" gradientUnits="userSpaceOnUse" x1="3.149" y1="17.5963" x2="32.863" y2="17.5963">
			<stop  offset="0" style="stop-color:#F5F5F5"/>
			<stop  offset="1" style="stop-color:#F1F1F1"/>
		</linearGradient>
		<rect x="3.149" y="2.739" fill="url(#SVGID_1_)" width="29.714" height="29.714"/>
	</g>
	<g>
		<linearGradient id="SVGID_2_" gradientUnits="userSpaceOnUse" x1="10.7482" y1="17.4623" x2="12.4496" y2="19.6792">
			<stop  offset="0" style="stop-color:#3A3A3A"/>
			<stop  offset="1" style="stop-color:#6A6A6A"/>
		</linearGradient>
		<polygon fill="url(#SVGID_2_)" points="20.627,10.184 12.169,19.879 2.658,27.071 13.512,13.635 		"/>
		<polygon fill="#575757" points="2.658,27.071 10.835,20.91 10.835,20.692 2.559,26.96 		"/>
		<linearGradient id="SVGID_3_" gradientUnits="userSpaceOnUse" x1="19.3809" y1="14.5336" x2="19.6431" y2="28.7476">
			<stop  offset="0" style="stop-color:#D4D4D4"/>
			<stop  offset="1" style="stop-color:#BCBCBC"/>
		</linearGradient>
		<polygon fill="url(#SVGID_3_)" points="28.312,14.641 10.435,13.585 10.791,27.727 10.973,27.952 28.042,29.75 		"/>
		<linearGradient id="SVGID_4_" gradientUnits="userSpaceOnUse" x1="30.753" y1="15.6797" x2="27.5198" y2="29.3986">
			<stop  offset="0" style="stop-color:#F1F1F1"/>
			<stop  offset="1" style="stop-color:#E0E0E0"/>
		</linearGradient>
		<polygon fill="url(#SVGID_4_)" points="28.312,14.641 31.807,10.891 31.916,11.065 31.598,23.495 31.501,23.779 28.042,29.75 		
			"/>
		<linearGradient id="SVGID_5_" gradientUnits="userSpaceOnUse" x1="21.451" y1="10.1501" x2="20.8406" y2="14.0302">
			<stop  offset="0" style="stop-color:#BCBCBC"/>
			<stop  offset="1" style="stop-color:#9D9D9D"/>
		</linearGradient>
		<polygon fill="url(#SVGID_5_)" points="10.435,13.59 28.312,14.641 31.807,10.909 16.515,10.126 		"/>
		<linearGradient id="SVGID_6_" gradientUnits="userSpaceOnUse" x1="13.7954" y1="13.0903" x2="13.9993" y2="14.2554">
			<stop  offset="0" style="stop-color:#474747"/>
			<stop  offset="0.3903" style="stop-color:#515151"/>
			<stop  offset="1" style="stop-color:#6A6A6A"/>
		</linearGradient>
		<polygon fill="url(#SVGID_6_)" points="16.646,10.104 16.646,13.944 10.509,13.589 		"/>
		<polygon fill="#F8F8F8" points="28.312,14.641 28.137,14.888 27.896,29.546 28.042,29.75 28.18,29.328 28.508,14.779 		"/>
		<polygon fill="#F8F8F8" points="28.508,14.779 31.916,11.065 31.807,10.891 28.312,14.641 		"/>
		<polygon fill="#F8F8F8" points="28.137,14.888 10.435,13.767 10.435,13.585 28.312,14.641 		"/>
		<polygon fill="#F8F8F8" points="28.137,14.888 28.508,14.779 28.312,14.641 		"/>
		<polygon fill="#8C8C8C" points="10.791,27.727 27.896,29.546 28.042,29.75 10.973,27.952 		"/>
		<polygon fill="#CACACA" points="31.598,23.495 28.18,29.328 28.042,29.75 31.501,23.779 		"/>
		<polygon fill="#B7B7B7" points="27.896,29.546 28.16,29.39 28.042,29.75 		"/>
		<polygon fill="#F8F8F8" points="20.534,10.267 20.374,10.381 31.722,10.981 31.807,10.891 		"/>
		<polygon fill="#BCBCBC" points="20.571,10.391 20.717,10.276 20.571,10.269 20.332,10.391 		"/>
		<linearGradient id="SVGID_7_" gradientUnits="userSpaceOnUse" x1="8.9285" y1="11.4486" x2="5.8326" y2="22.0111">
			<stop  offset="0" style="stop-color:#D4D4D4"/>
			<stop  offset="1" style="stop-color:#BCBCBC"/>
		</linearGradient>
		<polygon fill="url(#SVGID_7_)" points="10.318,10.541 0,24.085 2.658,27.071 13.512,13.635 		"/>
		<linearGradient id="SVGID_8_" gradientUnits="userSpaceOnUse" x1="18.3684" y1="9.2304" x2="12.2517" y2="11.9392">
			<stop  offset="0" style="stop-color:#F1F1F1"/>
			<stop  offset="1" style="stop-color:#E0E0E0"/>
		</linearGradient>
		<polygon fill="url(#SVGID_8_)" points="10.318,10.541 17.986,7.636 20.627,10.184 13.512,13.635 		"/>
		<polygon fill="#838383" points="13.512,13.635 13.216,13.635 2.468,27.071 2.658,27.071 		"/>
		<polygon fill="#6B6B6B" points="2.658,27.071 3.324,26.418 13.512,13.766 13.512,13.635 2.658,27.071 		"/>
		<polygon fill="#989898" points="13.512,13.635 13.512,13.381 20.627,10.038 20.627,10.184 		"/>
		<polygon fill="#F4F4F4" points="13.512,13.381 10.509,10.468 10.318,10.541 10.206,10.686 13.216,13.635 13.512,13.635 		"/>
		<polygon fill="#A6A6A6" points="13.216,13.635 13.512,13.381 13.546,13.698 		"/>
		<polygon fill="#E7E7E7" points="17.986,7.636 20.627,10.184 20.627,10.038 18.099,7.636 		"/>
		<polygon fill="#FAFAFA" points="10.318,10.541 10.601,10.557 18.099,7.636 17.924,7.636 		"/>
		<polygon fill="#F8F8F8" points="10.318,10.541 10.302,10.779 0.055,24.26 0,24.085 		"/>
		<polygon fill="#D4D4D4" points="0.011,24.303 2.468,27.071 2.658,27.071 0,24.085 		"/>
		<polygon fill="#5F5F5F" points="13.538,13.623 20.627,10.184 20.518,10.31 13.512,13.766 		"/>
		<linearGradient id="SVGID_9_" gradientUnits="userSpaceOnUse" x1="17.3323" y1="11.194" x2="19.109" y2="12.6212">
			<stop  offset="0" style="stop-color:#4E4E4E"/>
			<stop  offset="1" style="stop-color:#969696"/>
		</linearGradient>
		<polygon fill="url(#SVGID_9_)" points="20.573,10.391 17.986,14.031 16.515,13.944 16.515,12.285 20.351,10.392 		"/>
		<polygon fill="#BCBCBC" points="13.851,13.786 13.691,13.973 13.36,13.952 13.512,13.766 		"/>
		<polygon fill="#A2A2A2" points="13.691,13.973 10.561,18.595 10.509,17.428 13.36,13.952 		"/>
		<polygon fill="#F8F8F8" points="31.842,11.145 31.533,23.604 31.598,23.495 31.916,11.065 		"/>
	</g>
</g>
</svg>