<!-- Generator: Adobe Illustrator 18.1.1, SVG Export Plug-In  -->
<svg version="1.1"
	 xmlns="http://www.w3.org/2000/svg" xmlns:xlink="http://www.w3.org/1999/xlink" xmlns:a="http://ns.adobe.com/AdobeSVGViewerExtensions/3.0/"
	 x="0px" y="0px" width="66.727px" height="30.339px" viewBox="0 0 66.727 30.339" enable-background="new 0 0 66.727 30.339"
	 xml:space="preserve">
<defs>
</defs>
<g>
	<g>
		<g>
			<linearGradient id="SVGID_1_" gradientUnits="userSpaceOnUse" x1="33.3635" y1="0.6282" x2="33.3635" y2="29.8705">
				<stop  offset="0" style="stop-color:#F5F5F5"/>
				<stop  offset="1" style="stop-color:#F1F1F1"/>
			</linearGradient>
			<path fill="url(#SVGID_1_)" d="M1.32,30.009c-0.546,0-0.989-0.443-0.989-0.988V1.319c0-0.546,0.443-0.989,0.989-0.989h64.088
				c0.546,0,0.989,0.443,0.989,0.989v27.702c0,0.545-0.443,0.988-0.989,0.988H1.32z"/>
			<path fill="#D9D9D9" d="M65.408,0.66c0.364,0,0.66,0.296,0.66,0.66v27.702c0,0.363-0.296,0.659-0.66,0.659H1.319
				c-0.364,0-0.66-0.296-0.66-0.659V1.319c0-0.364,0.296-0.66,0.66-0.66H65.408 M65.408,0H1.319C0.591,0,0,0.591,0,1.319v27.702
				c0,0.728,0.591,1.318,1.319,1.318h64.089c0.728,0,1.319-0.59,1.319-1.318V1.319C66.727,0.591,66.136,0,65.408,0L65.408,0z"/>
		</g>
	</g>
	<polygon fill="#707172" points="27.168,7.255 40.878,15.169 27.168,23.084 	"/>
</g>
</svg>