<!-- Generator: Adobe Illustrator 18.1.1, SVG Export Plug-In  -->
<svg version="1.1"
	 xmlns="http://www.w3.org/2000/svg" xmlns:xlink="http://www.w3.org/1999/xlink" xmlns:a="http://ns.adobe.com/AdobeSVGViewerExtensions/3.0/"
	 x="0px" y="0px" width="30.633px" height="29.913px" viewBox="0 0 30.633 29.913" enable-background="new 0 0 30.633 29.913"
	 xml:space="preserve">
<defs>
</defs>
<g>
	<path fill="none" stroke="#AAACAD" stroke-width="0.8743" stroke-miterlimit="10" d="M29.84,14.596
		c0,0.451-0.176,0.875-0.495,1.194L16.511,28.624c-0.659,0.659-1.73,0.659-2.389,0L1.288,15.79
		c-0.319-0.319-0.495-0.743-0.495-1.194c0-0.451,0.176-0.875,0.495-1.195c0.659-0.659,1.73-0.659,2.389,0l11.639,11.64l11.639-11.64
		c0.659-0.659,1.73-0.659,2.389,0C29.664,13.721,29.84,14.145,29.84,14.596z"/>
	<path fill="none" stroke="#AAACAD" stroke-width="0.8743" stroke-miterlimit="10" d="M1.15,14.596c0-0.341,0.13-0.683,0.391-0.943
		c0.521-0.521,1.365-0.521,1.885,0l11.891,11.891l11.891-11.891c0.521-0.521,1.365-0.521,1.885,0c0.26,0.26,0.391,0.602,0.391,0.943
		c0,0.341-0.13,0.682-0.391,0.942L16.259,28.372c-0.52,0.52-1.364,0.52-1.885,0L1.54,15.538C1.28,15.278,1.15,14.937,1.15,14.596
		 M0.437,14.596c0,0.546,0.213,1.06,0.599,1.446L13.87,28.876c0.386,0.386,0.9,0.599,1.446,0.599s1.06-0.213,1.446-0.599
		l12.834-12.834c0.386-0.386,0.599-0.9,0.599-1.446s-0.213-1.061-0.599-1.447c-0.797-0.797-2.095-0.797-2.893,0L15.317,24.537
		L3.929,13.149c-0.798-0.797-2.096-0.797-2.893,0C0.65,13.536,0.437,14.05,0.437,14.596L0.437,14.596z"/>
</g>
<g>
	<path fill="none" stroke="#AAACAD" stroke-width="0.8743" stroke-miterlimit="10" d="M29.84,2.482c0,0.451-0.176,0.875-0.495,1.194
		L16.511,16.51c-0.659,0.659-1.73,0.659-2.389,0L1.288,3.676C0.969,3.357,0.793,2.933,0.793,2.482c0-0.451,0.176-0.875,0.495-1.195
		c0.659-0.659,1.73-0.659,2.389,0l11.639,11.64l11.639-11.64c0.659-0.659,1.73-0.659,2.389,0C29.664,1.606,29.84,2.031,29.84,2.482z
		"/>
	<path fill="none" stroke="#AAACAD" stroke-width="0.8743" stroke-miterlimit="10" d="M1.15,2.482c0-0.341,0.13-0.683,0.391-0.943
		c0.521-0.521,1.365-0.521,1.885,0l11.891,11.892L27.208,1.539c0.521-0.521,1.365-0.521,1.885,0c0.26,0.26,0.391,0.601,0.391,0.943
		c0,0.341-0.13,0.682-0.391,0.942L16.259,16.258c-0.52,0.52-1.364,0.52-1.885,0L1.54,3.424C1.28,3.164,1.15,2.823,1.15,2.482
		 M0.437,2.482c0,0.546,0.213,1.06,0.599,1.446L13.87,16.762c0.386,0.386,0.9,0.599,1.446,0.599s1.06-0.213,1.446-0.599
		L29.597,3.928c0.386-0.386,0.599-0.9,0.599-1.446c0-0.546-0.213-1.06-0.599-1.446c-0.797-0.798-2.095-0.798-2.893,0L15.317,12.423
		L3.929,1.036c-0.798-0.798-2.096-0.798-2.893,0C0.65,1.422,0.437,1.935,0.437,2.482L0.437,2.482z"/>
</g>
</svg>