<!-- Generator: Adobe Illustrator 18.1.1, SVG Export Plug-In  -->
<svg version="1.1"
	 xmlns="http://www.w3.org/2000/svg" xmlns:xlink="http://www.w3.org/1999/xlink" xmlns:a="http://ns.adobe.com/AdobeSVGViewerExtensions/3.0/"
	 x="0px" y="0px" width="43.338px" height="34.998px" viewBox="0 0 43.338 34.998" enable-background="new 0 0 43.338 34.998"
	 xml:space="preserve">
<defs>
</defs>
<g>
	<g>
		<g>
			<path fill="#D1D1D1" d="M41.184,31.35c0,0.728-0.346,1.318-0.772,1.318H2.925c-0.426,0-0.772-0.59-0.772-1.318V3.648
				c0-0.728,0.346-1.319,0.772-1.319h37.488c0.426,0,0.772,0.591,0.772,1.319V31.35z"/>
		</g>
	</g>
	<g>
		<g>
			<path fill="#CBCBCB" d="M42.23,1.024c0.04,0.1,0.084,0.267,0.084,0.498v31.955c0,0.23-0.044,0.397-0.084,0.497H1.107
				c-0.04-0.1-0.084-0.267-0.084-0.497V1.522c0-0.231,0.044-0.397,0.084-0.498H42.23 M42.481,0H0.857C0.384,0,0,0.681,0,1.522
				v31.955c0,0.84,0.384,1.521,0.857,1.521h41.624c0.473,0,0.857-0.681,0.857-1.521V1.522C43.338,0.681,42.954,0,42.481,0L42.481,0z
				"/>
		</g>
	</g>
	<polygon fill="#707172" points="15.473,9.584 29.184,17.499 15.473,25.413 	"/>
</g>
</svg>