<!-- Generator: Adobe Illustrator 18.1.1, SVG Export Plug-In  -->
<svg version="1.1"
	 xmlns="http://www.w3.org/2000/svg" xmlns:xlink="http://www.w3.org/1999/xlink" xmlns:a="http://ns.adobe.com/AdobeSVGViewerExtensions/3.0/"
	 x="0px" y="0px" width="35.193px" height="35.193px" viewBox="0 0 35.193 35.193" enable-background="new 0 0 35.193 35.193"
	 xml:space="preserve">
<defs>
</defs>
<g>
	<g>
		<rect x="0.338" y="0.338" fill="#FFFFFF" width="34.516" height="34.517"/>
		<path fill="#CBCBCB" d="M34.516,0.677v33.839H0.677V0.677H34.516 M35.193,0h-0.677H0.677H0v0.677v33.839v0.677h0.677h33.839h0.677
			v-0.677V0.677V0L35.193,0z"/>
	</g>
	<g>
		<linearGradient id="SVGID_1_" gradientUnits="userSpaceOnUse" x1="2.9059" y1="17.5963" x2="32.2866" y2="17.5963">
			<stop  offset="0" style="stop-color:#F5F5F5"/>
			<stop  offset="1" style="stop-color:#F1F1F1"/>
		</linearGradient>
		<rect x="2.906" y="2.906" fill="url(#SVGID_1_)" width="29.381" height="29.381"/>
	</g>
	<g>
		<path fill="#707172" d="M15.325,23.086l-0.073-0.919c-0.211-1.915,0.427-4.007,2.199-6.133c1.596-1.88,2.48-3.261,2.48-4.857
			c0-1.807-1.134-3.015-3.368-3.049c-1.273,0-2.692,0.427-3.58,1.1l-0.85-2.234c1.169-0.85,3.192-1.419,5.068-1.419
			c4.08,0,5.922,2.519,5.922,5.21c0,2.411-1.346,4.149-3.049,6.168c-1.557,1.846-2.126,3.403-2.019,5.214l0.035,0.919H15.325z
			 M14.544,28.051c0-1.311,0.888-2.234,2.126-2.234c1.242,0,2.092,0.923,2.092,2.234c0,1.238-0.815,2.196-2.126,2.196
			C15.394,30.246,14.544,29.289,14.544,28.051z"/>
	</g>
</g>
</svg>